<svg xmlns="http://www.w3.org/2000/svg" viewBox="0 0 211 68"><path d="M20.07 34.65 8.84 46.14v16.12H0V0h8.84v34.83L42.36 0h10.13L26.15 27.98l28.18 34.28H44.02L20.07 34.65ZM118.79 57.25l3.5-6.67c4.05 2.78 10.31 4.82 16.39 4.82 7.92 0 11.05-2.4 11.05-6.48 0-10.57-29.65-1.49-29.65-20.2 0-8.52 7.55-14.08 19.52-14.08 6.08 0 13.08 1.67 17.13 4.26l-3.69 6.67c-4.23-2.78-8.83-3.7-13.44-3.7-7.37 0-11.05 2.77-11.05 6.48 0 11.12 29.65 2.04 29.65 20.38 0 8.52-7.73 13.9-20.26 13.9-7.55.18-15.28-2.23-19.15-5.38ZM210.32 33.72v28.54h-8.1v-6.3c-2.76 4.26-8.1 6.67-15.47 6.67-10.68 0-17.31-5.75-17.31-13.9 0-7.6 4.78-13.71 18.78-13.71h13.45v-1.67c0-7.22-4.24-11.3-12.53-11.3-5.52 0-11.23 2.04-14.92 5l-3.5-6.48c4.8-3.9 11.8-6.12 19.34-6.12 13.08.19 20.26 6.49 20.26 19.27Zm-8.47 14.08v-6.67h-13.08c-8.47 0-10.86 3.34-10.86 7.23 0 4.63 3.87 7.6 10.31 7.6 6.45.18 11.6-2.6 13.63-8.16ZM91.53 49.84v12.6l5.34-3.15V46.7l-5.34 3.15Z"/><path d="M106.27 34.46 84.35 21.68l-12.16-7.04-11.97 20.93.19 19.65L82.14 68l2.21-1.3V48.17l9.76-17.23 9.95 5.75v18.53l2.2-1.3V34.46Z"/></svg>