<?xml version="1.0" standalone="no"?>
<!DOCTYPE svg PUBLIC "-//W3C//DTD SVG 20010904//EN"
 "http://www.w3.org/TR/2001/REC-SVG-20010904/DTD/svg10.dtd">
<svg version="1.0" xmlns="http://www.w3.org/2000/svg"
 width="864.000000pt" height="864.000000pt" viewBox="0 0 864.000000 864.000000"
 preserveAspectRatio="xMidYMid meet">
<metadata>
Created by potrace 1.14, written by Peter Selinger 2001-2017
</metadata>
<g transform="translate(0.000000,864.000000) scale(0.100000,-0.100000)"
fill="#000000" stroke="none">
<path d="M2459 8446 c-29 -50 -57 -94 -62 -97 -5 -3 -9 -10 -9 -15 0 -9 -28
-63 -48 -94 -20 -31 -103 -176 -111 -195 -5 -11 -19 -36 -30 -55 -27 -44 -255
-443 -281 -490 -11 -19 -28 -48 -39 -65 -10 -16 -22 -37 -26 -45 -4 -8 -56
-99 -115 -203 -59 -103 -108 -191 -108 -196 0 -5 -3 -11 -7 -13 -5 -1 -17 -20
-28 -40 -11 -20 -49 -87 -85 -149 -36 -62 -74 -129 -85 -149 -11 -19 -47 -82
-80 -140 -33 -57 -65 -114 -72 -125 -6 -11 -21 -39 -33 -62 -12 -24 -27 -43
-33 -43 -5 0 -7 -3 -4 -7 4 -3 3 -11 -2 -17 -4 -6 -20 -31 -34 -56 -13 -25
-59 -105 -101 -179 -42 -73 -76 -137 -76 -141 0 -5 -4 -10 -9 -12 -5 -1 -20
-25 -35 -53 -14 -27 -39 -72 -56 -100 -16 -27 -33 -57 -37 -65 -3 -8 -18 -33
-32 -55 -14 -22 -26 -42 -26 -45 0 -3 -14 -27 -30 -55 -35 -59 -59 -100 -77
-135 -7 -14 -15 -27 -18 -30 -3 -3 -13 -21 -24 -40 -10 -19 -26 -48 -35 -65
-14 -26 -16 -60 -14 -255 2 -124 4 -236 4 -250 1 -14 0 -36 -2 -50 -1 -14 1
-35 5 -47 5 -15 3 -23 -4 -23 -6 0 -8 -5 -4 -11 3 -6 8 -189 9 -407 2 -219 6
-676 10 -1017 4 -341 7 -730 8 -865 l2 -245 100 -59 c55 -33 117 -69 137 -80
20 -12 94 -55 164 -96 70 -41 139 -82 153 -90 32 -19 165 -98 206 -123 17 -9
38 -20 48 -23 9 -4 17 -10 17 -14 0 -4 8 -10 18 -13 9 -4 40 -20 67 -37 28
-17 58 -33 68 -37 9 -3 17 -9 17 -14 0 -5 4 -9 10 -9 5 0 39 -18 75 -40 36
-22 70 -40 75 -40 6 0 10 -4 10 -10 0 -5 4 -10 9 -10 10 0 238 -132 258 -150
7 -5 15 -10 18 -10 3 0 35 -18 71 -40 36 -22 68 -40 70 -40 3 0 21 -11 42 -24
34 -22 101 -61 357 -211 55 -32 132 -78 171 -102 39 -23 76 -43 82 -43 7 0 12
-3 12 -7 0 -5 10 -13 23 -19 50 -24 322 -188 325 -195 2 -5 12 -9 22 -9 10 0
21 -4 24 -9 5 -8 44 -32 141 -87 11 -6 34 -19 52 -30 18 -10 69 -41 115 -68
206 -121 330 -194 421 -248 l98 -58 42 22 c23 13 44 26 45 31 2 4 10 7 18 7 8
0 14 5 14 10 0 6 5 10 11 10 6 0 44 20 85 45 40 25 78 45 84 45 5 0 10 4 10 8
0 5 10 13 23 19 l22 10 0 1484 1 1484 73 130 c41 72 81 141 90 155 9 14 23 39
31 55 8 17 29 53 46 80 17 28 34 60 38 73 4 12 12 22 17 22 5 0 9 5 9 10 0 9
40 82 150 275 13 22 46 81 73 130 28 50 58 104 68 120 10 17 50 86 89 155 81
143 86 152 117 203 13 20 21 37 17 37 -3 0 4 13 15 29 12 16 21 34 21 39 0 6
4 12 8 14 4 2 33 48 64 103 30 55 64 116 76 136 11 20 26 47 34 60 7 13 19 32
27 42 8 9 10 17 6 17 -4 0 -1 8 7 18 8 9 30 44 48 77 42 76 77 140 104 187 12
20 81 144 155 275 74 131 145 255 158 275 l23 38 50 -30 c28 -17 55 -30 60
-30 4 0 10 -4 12 -8 2 -4 55 -37 118 -72 63 -35 117 -67 120 -70 3 -4 10 -9
15 -11 28 -11 151 -84 157 -93 4 -6 8 -7 8 -2 0 5 8 3 18 -5 9 -8 28 -20 41
-27 13 -8 40 -23 60 -34 20 -11 73 -42 119 -69 45 -27 87 -49 92 -49 6 0 10
-4 10 -10 0 -5 4 -10 10 -10 5 0 33 -14 62 -31 29 -18 68 -40 86 -50 17 -11
47 -27 65 -38 108 -62 144 -82 157 -91 8 -6 26 -16 40 -23 14 -7 51 -28 83
-47 82 -49 85 -51 150 -88 l57 -33 0 -1480 c0 -813 2 -1479 5 -1479 3 0 38 19
78 43 202 121 247 147 255 147 13 0 21 59 10 66 -5 3 -5 10 -2 16 3 5 6 692 6
1526 l0 1516 -51 33 c-28 18 -54 33 -56 33 -3 0 -34 18 -69 40 -35 22 -68 40
-75 40 -6 0 -11 5 -11 10 0 6 -4 10 -8 10 -5 0 -163 90 -352 200 -188 110
-347 200 -351 200 -5 0 -9 5 -9 10 0 6 -4 10 -9 10 -5 0 -45 21 -88 46 -43 26
-94 56 -113 67 -19 11 -115 66 -212 123 -97 57 -182 104 -188 104 -5 0 -10 5
-10 10 0 6 -7 10 -15 10 -8 0 -15 5 -15 10 0 6 -4 10 -10 10 -5 0 -70 36 -146
80 -75 44 -140 80 -145 80 -5 0 -9 5 -9 10 0 6 -6 10 -14 10 -8 0 -21 6 -28
13 -7 7 -24 18 -38 24 -14 7 -43 24 -65 38 -22 14 -47 28 -55 32 -8 3 -46 25
-85 49 -38 23 -86 51 -105 61 -70 40 -265 153 -280 162 -13 9 -198 117 -275
161 -16 9 -53 31 -81 48 -28 18 -56 32 -63 32 -6 0 -11 5 -11 10 0 6 -7 10
-15 10 -8 0 -15 5 -15 12 0 6 -3 8 -7 5 -3 -4 -13 -1 -22 6 -16 14 -133 81
-183 107 -16 7 -28 17 -28 22 0 4 -4 8 -9 8 -6 0 -92 48 -193 106 -101 59
-203 118 -228 132 -25 14 -58 34 -75 44 -16 10 -41 23 -55 30 -14 7 -27 15
-30 19 -3 3 -41 25 -85 49 -44 24 -81 47 -83 52 -2 4 -8 8 -13 8 -4 0 -46 22
-91 49 -95 56 -141 82 -218 124 -30 16 -61 35 -69 41 -16 12 -49 32 -76 44
-11 6 -93 53 -183 106 -89 53 -167 96 -172 96 -6 0 -10 5 -10 10 0 6 -4 10
-10 10 -5 0 -55 27 -111 60 -55 33 -103 60 -105 60 -2 0 -23 12 -47 27 -23 15
-60 37 -82 49 -22 11 -54 29 -72 40 -17 10 -51 31 -76 45 l-46 27 -52 -92z"/>
<path d="M6385 3366 c-38 -24 -149 -90 -245 -146 -96 -57 -215 -127 -263 -157
-49 -29 -90 -53 -93 -53 -2 0 -28 -16 -58 -35 -30 -19 -59 -35 -64 -35 -5 0
-20 -10 -33 -22 l-24 -23 0 -1000 c0 -550 4 -999 8 -998 11 3 196 111 238 139
19 13 38 24 41 24 4 0 43 22 87 50 44 28 83 50 86 50 3 0 35 20 72 43 38 24
73 46 78 48 6 2 63 35 128 74 l118 70 0 115 c0 63 0 123 0 133 0 9 0 64 0 122
0 58 0 112 0 120 0 8 0 62 0 120 0 58 0 112 0 120 0 8 0 80 0 160 0 80 0 152
0 160 0 8 0 62 0 120 0 58 0 112 0 120 0 8 0 62 0 120 0 58 0 112 0 120 0 8 0
62 0 120 0 140 0 125 -1 253 -1 61 -2 112 -3 111 -1 0 -33 -20 -72 -43z"/>
</g>
</svg>
